<svg width="1662" height="462" viewBox="0 0 1662 462" fill="none" xmlns="http://www.w3.org/2000/svg">
<path d="M475.29 230.358H362.191C362.191 104.639 464.119 2.78113 589.766 2.78113V115.88C526.529 115.88 475.29 167.119 475.29 230.358Z" fill="#303030"></path>
<path d="M113.099 224.588H0C0 350.307 104.247 452.481 229.897 452.481V341.845C166.658 341.845 113.099 287.827 113.099 224.588Z" fill="#303030"></path>
<path d="M589.043 456.308V343.21C652.281 343.21 703.519 291.971 703.519 228.733H816.618C816.618 354.452 714.691 456.308 589.043 456.308Z" fill="#161616"></path>
<path d="M227.505 0.00012207L227.576 113.099C164.337 113.139 113.13 164.41 113.169 227.649L0.070358 227.72C-0.00830771 102.001 101.855 0.0789268 227.505 0.00012207Z" fill="#636363"></path>
<path d="M589.947 115.886V2.78662C715.666 2.78662 817.522 104.713 817.522 230.364H704.424C704.424 167.125 653.185 115.886 589.947 115.886Z" fill="#636363"></path>
<path d="M229.898 341.898V452.481C367.788 452.481 474.535 352.822 474.535 229.969H362.286C362.286 291.8 299.259 341.898 229.898 341.898Z" fill="#636363"></path>
<path d="M227.746 113.17V0.0715332C279.399 0.0715332 315.999 13.8504 354.203 42.8836C332.03 74.9188 316.617 108.331 308.209 141.708C287.52 121.089 259.262 113.239 227.746 113.239V113.17Z" fill="#161616"></path>
<path d="M991.683 459.735C991.683 459.735 895.153 461.119 878.584 461.116C878.584 451.461 877.936 295.392 877.936 232.154L991.059 232.151C991.059 357.869 991.683 382.202 991.683 459.735Z" fill="#161616"></path>
<path d="M1105.42 3.89075V117.008C1042.18 117.048 991.016 168.137 991.056 231.376L877.936 231.372C877.858 105.653 979.77 3.96937 1105.42 3.89075Z" fill="#636363"></path>
<path d="M1105.42 116.984V3.88464C1157.07 3.88464 1204.66 21.0563 1242.86 50.0897C1217.42 78.778 1197.83 112.846 1186.18 150.361C1165.49 129.742 1136.94 117.005 1105.42 117.005V116.984Z" fill="#161616"></path>
<path d="M1344.73 230.503H1231.63C1231.63 104.783 1333.56 2.92554 1459.21 2.92554V116.025C1395.97 116.025 1344.73 167.264 1344.73 230.503Z" fill="#636363"></path>
<path d="M1232.13 229.911L1344.5 230.158C1344.36 293.396 1395.16 344.749 1457.99 344.885L1457.74 457.983C1332.83 457.708 1231.85 355.562 1232.13 229.911Z" fill="#303030"></path>
<path fill-rule="evenodd" clip-rule="evenodd" d="M1460.87 3.16089C1571.84 3.16095 1661.75 105.087 1661.75 230.736H1661.52L1661.53 262.08C1608.32 261.882 1499.8 261.74 1459.73 261.643C1459.34 238.258 1459.7 201.581 1459.69 174.764C1492.46 174.844 1523.29 173.855 1549.11 174.909C1531.82 139.913 1498.79 116.258 1460.87 116.258V3.16089Z" fill="#303030"></path>
</svg>